<?xml version="1.0" encoding="utf-8"?>
<!-- Generator: Adobe Illustrator 20.1.0, SVG Export Plug-In . SVG Version: 6.00 Build 0)  -->
<svg version="1.1" id="Layer_1" xmlns="http://www.w3.org/2000/svg" xmlns:xlink="http://www.w3.org/1999/xlink" x="0px" y="0px"
	 viewBox="0 0 350 543.5" style="enable-background:new 0 0 350 543.5;" xml:space="preserve">
<style type="text/css">
	.Graphic_x0020_Style{fill:url(#SVGID_1_);stroke:#000000;stroke-width:0.5;stroke-miterlimit:10;}
	.Graphic_x0020_Style_x0020_2{fill:url(#SVGID_2_);stroke:#000000;stroke-width:0.5;stroke-miterlimit:10;}
	
		.Graphic_x0020_Style_x0020_3{fill:#99B3FF;fill-opacity:0.25;stroke:#000000;stroke-width:0.5;stroke-miterlimit:10;stroke-dasharray:2,5;}
	.st0{fill:url(#SVGID_3_);stroke:#000000;stroke-width:0.5;stroke-miterlimit:10;}
	.st1{opacity:0.25;fill:#99B3FF;}
	.st2{fill:none;stroke:#000000;stroke-width:0.5;stroke-miterlimit:10;stroke-dasharray:1.9969,4.9921;}
	.st3{fill:url(#SVGID_4_);stroke:#000000;stroke-width:0.5;stroke-miterlimit:10;}
	.st4{font-family:'MinionPro-It';}
	.st5{font-size:13.4227px;}
	.st6{font-family:'Menlo-Regular';}
	.st7{fill:none;stroke:#000000;stroke-width:0.5;stroke-miterlimit:10;stroke-dasharray:2.0052,5.0129;}
	.st8{fill:url(#SVGID_5_);stroke:#000000;stroke-width:0.5;stroke-miterlimit:10;}
	.st9{fill:none;}
	.st10{fill:url(#SVGID_6_);stroke:#000000;stroke-width:0.5;stroke-miterlimit:10;}
	.st11{fill:url(#SVGID_7_);stroke:#000000;stroke-width:0.5;stroke-miterlimit:10;}
	.st12{font-size:15.1005px;}
	.st13{fill:url(#SVGID_8_);stroke:#000000;stroke-width:0.5;stroke-miterlimit:10;}
	.st14{fill:url(#SVGID_9_);stroke:#000000;stroke-width:0.5;stroke-miterlimit:10;}
	.st15{fill:url(#SVGID_10_);stroke:#000000;stroke-width:0.5;stroke-miterlimit:10;}
	.st16{fill:url(#SVGID_11_);stroke:#000000;stroke-width:0.5;stroke-miterlimit:10;}
	.st17{fill:url(#SVGID_12_);stroke:#000000;stroke-width:0.5;stroke-miterlimit:10;}
	.st18{fill:url(#SVGID_13_);stroke:#000000;stroke-width:0.5;stroke-miterlimit:10;}
	.st19{fill:url(#SVGID_14_);stroke:#000000;stroke-width:0.5;stroke-miterlimit:10;}
	.st20{fill:none;stroke:#000000;stroke-width:0.5;stroke-miterlimit:10;stroke-dasharray:2.0095,5.0237;}
	.st21{fill:url(#SVGID_15_);stroke:#000000;stroke-width:0.5;stroke-miterlimit:10;}
</style>
<linearGradient id="SVGID_1_" gradientUnits="userSpaceOnUse" x1="-25.3333" y1="-3.3333" x2="-25.3333" y2="-2.3333">
	<stop  offset="0" style="stop-color:#FFFFFF"/>
	<stop  offset="1" style="stop-color:#BDCCD4"/>
</linearGradient>
<linearGradient id="SVGID_2_" gradientUnits="userSpaceOnUse" x1="-25.3333" y1="-3.3333" x2="-25.3333" y2="-2.3333">
	<stop  offset="0" style="stop-color:#FFFFFF"/>
	<stop  offset="1" style="stop-color:#D9E0A9"/>
</linearGradient>
<radialGradient id="SVGID_3_" cx="168.6286" cy="134.307" r="10.2007" gradientUnits="userSpaceOnUse">
	<stop  offset="0" style="stop-color:#FFFFFF"/>
	<stop  offset="1" style="stop-color:#BDCCD4"/>
</radialGradient>
<ellipse class="st0" cx="168.6" cy="134.3" rx="12" ry="8"/>
<g>
	<g>
		<path class="st1" d="M288.3,538H45.3c-14.1,0-25.6-11.5-25.6-25.6V304.6c0-14.1,11.5-25.6,25.6-25.6h242.9
			c14.1,0,25.6,11.5,25.6,25.6v207.8C313.9,526.5,302.4,538,288.3,538z"/>
		<path class="st2" d="M288.3,538H45.3c-14.1,0-25.6-11.5-25.6-25.6V304.6c0-14.1,11.5-25.6,25.6-25.6h242.9
			c14.1,0,25.6,11.5,25.6,25.6v207.8C313.9,526.5,302.4,538,288.3,538z"/>
	</g>
	<g>
		<linearGradient id="SVGID_4_" gradientUnits="userSpaceOnUse" x1="88.5224" y1="263.8923" x2="88.5224" y2="281.9727">
			<stop  offset="0" style="stop-color:#FFFFFF"/>
			<stop  offset="1" style="stop-color:#D9E0A9"/>
		</linearGradient>
		<path class="st3" d="M127.9,283.2H49.1c-2.6,0-4.8-2.1-4.8-4.8v-9.7c0-2.6,2.1-4.8,4.8-4.8h78.8c2.6,0,4.8,2.1,4.8,4.8v9.7
			C132.7,281,130.6,283.2,127.9,283.2z"/>
		<text transform="matrix(1 0 0 1 49.2741 278.4645)"><tspan x="0" y="0" class="st4 st5">Event:</tspan><tspan x="33.3" y="0" class="st6 st5">‘open’</tspan></text>
	</g>
</g>
<g>
	<g>
		<path class="st1" d="M286.2,336.9H47.4c-4.7,0-8.4-3.8-8.4-8.4v-15.4c0-4.7,3.8-8.4,8.4-8.4h238.8c4.7,0,8.4,3.8,8.4,8.4v15.4
			C294.6,333.2,290.9,336.9,286.2,336.9z"/>
		<path class="st7" d="M286.2,336.9H47.4c-4.7,0-8.4-3.8-8.4-8.4v-15.4c0-4.7,3.8-8.4,8.4-8.4h238.8c4.7,0,8.4,3.8,8.4,8.4v15.4
			C294.6,333.2,290.9,336.9,286.2,336.9z"/>
	</g>
	<linearGradient id="SVGID_5_" gradientUnits="userSpaceOnUse" x1="109.4026" y1="289.5499" x2="109.4026" y2="307.6303">
		<stop  offset="0" style="stop-color:#FFFFFF"/>
		<stop  offset="1" style="stop-color:#D9E0A9"/>
	</linearGradient>
	<path class="st8" d="M156.3,308.8H62.5c-2.9,0-5.2-2.3-5.2-5.2v-8.9c0-2.9,2.3-5.2,5.2-5.2h93.8c2.9,0,5.2,2.3,5.2,5.2v8.9
		C161.5,306.5,159.2,308.8,156.3,308.8z"/>
	<text transform="matrix(1 0 0 1 64.4748 304.1217)"><tspan x="0" y="0" class="st4 st5">Event:</tspan><tspan x="33.3" y="0" class="st6 st5">‘close’</tspan></text>
	<rect x="48.3" y="313.5" class="st9" width="237" height="14.7"/>
	<text transform="matrix(1 0 0 1 106.0031 323.0153)" class="st4 st5">... cleanup after close ...</text>
</g>
<g>
	<g>
		<path class="st1" d="M286.2,392.7H47.4c-4.7,0-8.4-3.8-8.4-8.4v-15.4c0-4.7,3.8-8.4,8.4-8.4h238.8c4.7,0,8.4,3.8,8.4,8.4v15.4
			C294.6,389,290.9,392.7,286.2,392.7z"/>
		<path class="st7" d="M286.2,392.7H47.4c-4.7,0-8.4-3.8-8.4-8.4v-15.4c0-4.7,3.8-8.4,8.4-8.4h238.8c4.7,0,8.4,3.8,8.4,8.4v15.4
			C294.6,389,290.9,392.7,286.2,392.7z"/>
	</g>
	<linearGradient id="SVGID_6_" gradientUnits="userSpaceOnUse" x1="138.4444" y1="345.338" x2="138.4444" y2="363.4184">
		<stop  offset="0" style="stop-color:#FFFFFF"/>
		<stop  offset="1" style="stop-color:#D9E0A9"/>
	</linearGradient>
	<path class="st10" d="M214,364.6H62.9c-3.6,0-6.5-2.9-6.5-6.5v-6.2c0-3.6,2.9-6.5,6.5-6.5H214c3.6,0,6.5,2.9,6.5,6.5v6.2
		C220.5,361.7,217.6,364.6,214,364.6z"/>
	<text transform="matrix(1 0 0 1 61.1916 359.9108)"><tspan x="0" y="0" class="st4 st5">Event:</tspan><tspan x="33.3" y="0" class="st6 st5">‘statusChanged’</tspan></text>
	<text transform="matrix(1 0 0 1 64.4416 379.694)" class="st4 st5">... record or respond to status update ...</text>
</g>
<g>
	<linearGradient id="SVGID_7_" gradientUnits="userSpaceOnUse" x1="240.2406" y1="181.9965" x2="240.2406" y2="205.5796">
		<stop  offset="0" style="stop-color:#FFFFFF"/>
		<stop  offset="1" style="stop-color:#BDCCD4"/>
	</linearGradient>
	<path class="st11" d="M311.6,207.2H168.9c-5.8,0-10.5-4.7-10.5-10.5v-4.2c0-5.8,4.7-10.5,10.5-10.5h142.8c5.8,0,10.5,4.7,10.5,10.5
		v4.2C322.1,202.5,317.4,207.2,311.6,207.2z"/>
	<text transform="matrix(1 0 0 1 162.965 198.2795)" class="st6 st12">g2.openFirst(...)</text>
</g>
<g>
	<linearGradient id="SVGID_8_" gradientUnits="userSpaceOnUse" x1="82.9091" y1="159.5329" x2="82.9091" y2="183.1161">
		<stop  offset="0" style="stop-color:#FFFFFF"/>
		<stop  offset="1" style="stop-color:#BDCCD4"/>
	</linearGradient>
	<path class="st13" d="M133.5,184.7H32.3c-4.9,0-8.9-4-8.9-8.9v-7.3c0-4.9,4-8.9,8.9-8.9h101.1c4.9,0,8.9,4,8.9,8.9v7.3
		C142.4,180.7,138.4,184.7,133.5,184.7z"/>
	<text transform="matrix(1 0 0 1 28.3615 175.8156)" class="st6 st12">g2.list(...)</text>
</g>
<g>
	<linearGradient id="SVGID_9_" gradientUnits="userSpaceOnUse" x1="168.6286" y1="4.6667" x2="168.6286" y2="28.2498">
		<stop  offset="0" style="stop-color:#FFFFFF"/>
		<stop  offset="1" style="stop-color:#BDCCD4"/>
	</linearGradient>
	<path class="st14" d="M272.8,29.8H64.5c-6.9,0-12.5-5.6-12.5-12.5v-0.2c0-6.9,5.6-12.5,12.5-12.5h208.3c6.9,0,12.5,5.6,12.5,12.5
		v0.2C285.3,24.2,279.7,29.8,272.8,29.8z"/>
	<text transform="matrix(1 0 0 1 54.988 20.9499)" class="st6 st12">var g2 = new G2coreAPI();</text>
</g>
<g>
	<linearGradient id="SVGID_10_" gradientUnits="userSpaceOnUse" x1="61.8334" y1="215.9881" x2="61.8334" y2="239.5712">
		<stop  offset="0" style="stop-color:#FFFFFF"/>
		<stop  offset="1" style="stop-color:#BDCCD4"/>
	</linearGradient>
	<path class="st15" d="M110.2,241.2H13.5c-4.8,0-8.7-3.9-8.7-8.7v-7.7c0-4.8,3.9-8.7,8.7-8.7h96.7c4.8,0,8.7,3.9,8.7,8.7v7.7
		C118.9,237.2,115,241.2,110.2,241.2z"/>
	<text transform="matrix(1 0 0 1 7.2858 231.9377)" class="st6 st12">g2.open(...)</text>
</g>
<g>
	<linearGradient id="SVGID_11_" gradientUnits="userSpaceOnUse" x1="91.1207" y1="401.126" x2="91.1207" y2="424.7091">
		<stop  offset="0" style="stop-color:#FFFFFF"/>
		<stop  offset="1" style="stop-color:#BDCCD4"/>
	</linearGradient>
	<path class="st16" d="M134.9,426.3H47.3c-4.6,0-8.4-3.7-8.4-8.4v-8.5c0-4.6,3.7-8.4,8.4-8.4h87.6c4.6,0,8.4,3.7,8.4,8.4v8.5
		C143.3,422.6,139.5,426.3,134.9,426.3z"/>
	<text transform="matrix(1 0 0 1 41.9884 417.0749)" class="st6 st12">g2.set(...)</text>
</g>
<g>
	<linearGradient id="SVGID_12_" gradientUnits="userSpaceOnUse" x1="101.1923" y1="434.6827" x2="101.1923" y2="458.2659">
		<stop  offset="0" style="stop-color:#FFFFFF"/>
		<stop  offset="1" style="stop-color:#BDCCD4"/>
	</linearGradient>
	<path class="st17" d="M154.3,459.9H48.1c-5,0-9.1-4.1-9.1-9.1v-6.9c0-5,4.1-9.1,9.1-9.1h106.2c5,0,9.1,4.1,9.1,9.1v6.9
		C163.4,455.8,159.3,459.9,154.3,459.9z"/>
	<text transform="matrix(1 0 0 1 42.8415 450.6325)" class="st6 st12">g2.write(...)</text>
</g>
<g>
	<linearGradient id="SVGID_13_" gradientUnits="userSpaceOnUse" x1="101.1923" y1="501.7961" x2="101.1923" y2="525.3793">
		<stop  offset="0" style="stop-color:#FFFFFF"/>
		<stop  offset="1" style="stop-color:#BDCCD4"/>
	</linearGradient>
	<path class="st18" d="M154.3,527H48.1c-5,0-9.1-4.1-9.1-9.1v-6.9c0-5,4.1-9.1,9.1-9.1h106.2c5,0,9.1,4.1,9.1,9.1v6.9
		C163.4,522.9,159.3,527,154.3,527z"/>
	<text transform="matrix(1 0 0 1 42.8415 517.7468)" class="st6 st12">g2.close(...)</text>
</g>
<g>
	<linearGradient id="SVGID_14_" gradientUnits="userSpaceOnUse" x1="113.6196" y1="468.2394" x2="113.6196" y2="491.8226">
		<stop  offset="0" style="stop-color:#FFFFFF"/>
		<stop  offset="1" style="stop-color:#BDCCD4"/>
	</linearGradient>
	<path class="st19" d="M178.3,493.4H49c-5.5,0-10-4.5-10-10v-5.2c0-5.5,4.5-10,10-10h129.3c5.5,0,10,4.5,10,10v5.2
		C188.3,488.9,183.8,493.4,178.3,493.4z"/>
	<text transform="matrix(1 0 0 1 41.9528 484.1667)" class="st6 st12">g2.sendFile(...)</text>
</g>
<g>
	<g>
		<path d="M157.9,142.8c0,0-0.2,0.2-0.6,0.6c-0.4,0.4-0.9,0.9-1.6,1.5c-1.4,1.3-3.5,3-6.4,4.6c-1.5,0.8-3.1,1.5-5,1.9
			c-1.8,0.5-3.9,0.7-5.9,0.5c-2.1-0.2-4.2-0.7-6.2-1.6c-2-0.8-3.9-2-5.7-3.2c-1.8-1.2-3.5-2.6-5.3-3.9c-1.7-1.3-3.4-2.5-5.2-3.3
			c-1.8-0.8-3.7-1.1-5.3-0.6c-1.7,0.5-2.9,1.8-3.9,3c-0.9,1.3-1.6,2.6-2.1,3.8c-0.5,1.2-0.9,2.3-1.2,3.2c-0.3,0.9-0.5,1.6-0.6,2.1
			c-0.1,0.5-0.2,0.8-0.2,0.8l-0.3-0.1c0,0,0.1-0.3,0.2-0.8c0.1-0.5,0.3-1.2,0.5-2.2c0.2-0.9,0.6-2,1-3.3c0.5-1.3,1.1-2.7,2.1-4
			c1-1.4,2.3-2.8,4.2-3.5c1-0.3,2-0.4,3.1-0.3c1.1,0.1,2.1,0.5,3,0.9c1.9,0.9,3.6,2.2,5.3,3.5c1.7,1.3,3.4,2.7,5.2,3.9
			c1.8,1.2,3.6,2.4,5.5,3.2c1.9,0.9,4,1.4,6,1.6c2,0.2,4,0,5.8-0.4c1.8-0.4,3.5-1.1,4.9-1.8c2.9-1.5,5-3.2,6.5-4.4
			c0.7-0.6,1.3-1.1,1.6-1.5C157.6,143,157.8,142.8,157.9,142.8L157.9,142.8z"/>
		<g>
			<path d="M101.9,155.3c-0.2-1.5-0.7-3.4-1.4-4.7l2.1,1.3l2.5-0.4C104,152.4,102.7,154,101.9,155.3z"/>
		</g>
	</g>
</g>
<g>
	<g>
		<path d="M171.6,34c0,0,0,0.5,0.1,1.4c0,0.9,0,2.2-0.2,3.7c-0.1,0.8-0.2,1.6-0.4,2.5c-0.2,0.9-0.5,1.7-0.8,2.7
			c-0.2,0.5-0.4,0.9-0.5,1.4c-0.2,0.5-0.4,0.9-0.6,1.4c-0.5,0.9-1,1.8-1.5,2.7c-0.3,0.4-0.6,0.9-0.9,1.3c-0.3,0.4-0.6,0.8-0.9,1.2
			c-0.6,0.8-1.3,1.5-2,2.2c-0.7,0.7-1.4,1.3-2.1,1.9c-0.7,0.5-1.4,1.1-2,1.5c-0.6,0.4-1.2,0.8-1.8,1.1c-0.5,0.3-1,0.6-1.4,0.8
			c-0.8,0.4-1.3,0.6-1.3,0.6l-0.3-0.5c0,0,0.4-0.3,1.2-0.7c0.7-0.5,1.8-1.2,3-2.1c0.6-0.5,1.2-1,1.9-1.5c0.7-0.6,1.4-1.1,2-1.8
			c0.7-0.6,1.4-1.3,2-2.1c0.3-0.4,0.7-0.7,1-1.1c0.3-0.4,0.6-0.8,0.9-1.2c0.6-0.8,1.1-1.7,1.6-2.5c0.2-0.4,0.5-0.9,0.7-1.3
			c0.2-0.4,0.4-0.9,0.6-1.3c0.3-0.9,0.6-1.8,0.9-2.6c0.2-0.8,0.4-1.6,0.5-2.4c0.3-1.5,0.3-2.8,0.4-3.7C171.5,34.5,171.5,34,171.6,34
			L171.6,34z"/>
		<g>
			<path d="M152.3,61.3c1-1.1,2.2-2.7,2.8-4l0.3,2.5l1.8,1.8C155.8,61.2,153.8,61.1,152.3,61.3z"/>
		</g>
	</g>
</g>
<g>
	<g>
		<path d="M78.1,188.4c0,0-0.2,0.3-0.6,0.7c-0.4,0.5-0.9,1.2-1.5,2.1c-1.2,1.8-2.5,4.3-3.3,7c-0.4,1.3-0.7,2.7-0.8,4
			c-0.2,1.3-0.2,2.5-0.3,3.6c0,1,0,1.9,0,2.5c0,0.6,0,1,0,1l-0.7,0.1c0,0-0.3-1.4-0.4-3.6c0-1.1,0.1-2.4,0.3-3.7
			c0.1-0.7,0.3-1.4,0.5-2c0.2-0.7,0.4-1.4,0.6-2.1c0.5-1.4,1.1-2.7,1.7-3.9c0.7-1.2,1.4-2.2,2-3.1c0.7-0.9,1.3-1.5,1.7-2
			C77.7,188.6,78,188.4,78.1,188.4L78.1,188.4z"/>
		<g>
			<path d="M71.7,212.3c-0.8-1.3-2-2.9-3.1-3.8l2.5,0.4l2.2-1.3C72.6,208.9,72,210.8,71.7,212.3z"/>
		</g>
	</g>
</g>
<g>
	<g>
		<path d="M69.3,243.7c0,0,0.3,0.8,1,2.2c0.6,1.4,1.6,3.4,3,5.5c0.7,1.1,1.6,2.2,2.7,3.2c1.1,1,2.4,1.9,3.9,2.4
			c1.5,0.5,3.2,0.3,4.7-0.4c1.5-0.6,2.9-1.7,4.3-2.8c2.6-2.3,4.8-5,7.4-7.2c0.7-0.5,1.3-1,2.1-1.4c0.8-0.4,1.6-0.6,2.5-0.6
			c0.2,0,0.4,0.1,0.6,0.1l0.2,0l0,0l0.1,0l0.1,0l0.3,0.1c0.4,0.2,0.8,0.4,1,0.7c0.6,0.5,1,1.2,1.3,1.8c0.6,1.2,0.9,2.4,1.2,3.5
			c0.2,1.1,0.3,2,0.4,2.8c0.1,0.8,0.1,1.4,0.2,1.8c0,0.4,0,0.6,0,0.6l-0.4,0c0,0,0-0.2-0.1-0.6c-0.1-0.4-0.1-1-0.3-1.7
			c-0.1-0.7-0.3-1.7-0.6-2.7c-0.3-1-0.6-2.2-1.2-3.2c-0.3-0.5-0.7-1.1-1.2-1.5c-0.2-0.2-0.5-0.4-0.8-0.5l-0.3-0.1l-0.1,0l0,0
			c0.1,0,0,0,0,0l0,0l-0.1,0c-0.2,0-0.3-0.1-0.5-0.1c-1.3-0.1-2.6,0.8-3.9,1.7c-2.5,2-4.8,4.7-7.5,7c-1.4,1.1-2.8,2.2-4.5,2.8
			c-1.7,0.6-3.5,0.8-5.2,0.3c-1.6-0.5-3-1.5-4.1-2.6c-1.1-1.1-1.9-2.3-2.6-3.4c-1.4-2.2-2.3-4.3-2.9-5.7
			C69.5,244.6,69.2,243.8,69.3,243.7L69.3,243.7z"/>
		<g>
			<path d="M106.1,259.3c-0.6-1.4-1.6-3.1-2.7-4.1l2.4,0.7l2.3-1C107.3,256,106.6,257.8,106.1,259.3z"/>
		</g>
	</g>
</g>
<g>
	<g>
		<path d="M231.7,212.2c0,0-0.2,0.5-0.5,1.4c-0.3,0.9-0.9,2.3-1.6,3.9c-0.8,1.7-1.8,3.6-3.2,5.8c-1.4,2.1-3.2,4.4-5.5,6.5
			c-2.3,2.1-5.2,4-8.5,5.4c-3.3,1.4-7.1,2.2-11,2.4c-3.9,0.2-8-0.2-12.1-0.8c-4.1-0.7-8.1-1.6-12.2-2.5c-4.1-0.9-8.1-1.8-12.1-2.5
			c-4-0.7-8-1.1-11.9-0.9c-3.8,0.1-7.6,0.8-10.8,2.2c-3.3,1.3-6.1,3.2-8.3,5.3c-2.2,2.1-4,4.4-5.3,6.5c-1.3,2.1-2.3,4.1-3,5.8
			c-0.4,0.8-0.7,1.6-0.9,2.2c-0.3,0.7-0.5,1.2-0.6,1.7c-0.3,0.9-0.5,1.4-0.5,1.4l-0.2-0.1c0,0,0.2-0.5,0.4-1.4
			c0.1-0.5,0.3-1,0.6-1.7c0.2-0.7,0.5-1.4,0.9-2.3c0.7-1.7,1.6-3.7,2.9-5.9c1.3-2.2,3-4.6,5.3-6.8c2.3-2.2,5.1-4.2,8.5-5.7
			c3.4-1.4,7.2-2.1,11.1-2.3c4-0.2,8,0.3,12.1,1c4.1,0.7,8.1,1.7,12.2,2.6c4.1,1,8.1,1.9,12.1,2.6c4,0.7,8,1.1,11.9,0.9
			c3.9-0.1,7.6-0.9,10.9-2.2c3.3-1.3,6.1-3.2,8.5-5.3c2.3-2.1,4.1-4.3,5.5-6.4c1.4-2.1,2.5-4.1,3.2-5.7c0.8-1.6,1.3-3,1.6-3.9
			C231.5,212.6,231.6,212.1,231.7,212.2L231.7,212.2z"/>
		<g>
			<path d="M122.6,258.9c-0.1-1.5-0.4-3.5-1-4.8l2,1.5l2.5-0.1C124.9,256.2,123.6,257.7,122.6,258.9z"/>
		</g>
	</g>
</g>
<g>
	<g>
		<path d="M242.3,319.5c0,0,1.4-0.4,4.1-1.4c2.6-0.9,6.5-2.4,11.2-4.5c4.8-2.1,10.4-4.9,16.6-8.6c3.1-1.9,6.3-3.9,9.7-6.3
			c3.3-2.3,6.7-4.9,10.1-7.8c3.4-2.9,6.8-6,10.2-9.4c3.4-3.4,6.6-7.2,9.8-11.2c3.1-4,6.1-8.4,8.9-13c2.8-4.6,5.2-9.5,7.5-14.6
			c4.5-10.2,8.2-21.2,10.5-32.6c2.4-11.4,3.3-23.4,1.8-35.2c-0.8-5.9-2.2-11.6-4.4-17.1c-2.2-5.5-5.1-10.6-8.7-15.2
			c-7.1-9.2-16.7-16.1-26.7-20.8c-10-4.8-20.6-7.4-30.6-8.8c-5.1-0.7-10-1-14.8-1.1c-1.2,0-2.4,0-3.6,0c-0.6,0-1.2,0-1.8,0
			c-0.6,0-1.2,0.1-1.7,0.1c-1.2,0.1-2.3,0.1-3.4,0.2c-1.1,0.1-2.3,0.2-3.4,0.3c-8.9,0.8-16.9,2.3-23.9,4.2c-7,1.8-13,4-17.8,5.8
			c-1.2,0.5-2.4,0.9-3.4,1.4c-1.1,0.4-2.1,0.9-3,1.3c-1.9,0.8-3.4,1.5-4.7,2.1c-2.5,1.2-3.8,1.9-3.8,1.9l-0.1-0.1
			c0,0,1.3-0.7,3.8-1.9c1.2-0.6,2.8-1.4,4.6-2.2c0.9-0.4,1.9-0.9,3-1.3c1.1-0.4,2.2-0.9,3.4-1.4c4.8-1.9,10.8-4.1,17.8-6
			c7-1.9,15.1-3.5,24-4.4c1.1-0.1,2.2-0.2,3.4-0.3c1.1-0.1,2.3-0.1,3.5-0.2c0.6,0,1.2-0.1,1.8-0.1c0.6,0,1.2,0,1.8,0
			c1.2,0,2.4,0,3.6,0c4.8,0.1,9.8,0.4,14.9,1c10.2,1.4,20.8,4.1,30.9,8.9c10.1,4.8,19.8,11.7,27,21.2c3.6,4.7,6.6,9.9,8.8,15.4
			c2.2,5.5,3.6,11.4,4.4,17.3c1.5,11.9,0.5,23.9-1.9,35.4c-2.4,11.5-6.1,22.5-10.7,32.7c-2.3,5.1-4.8,10-7.6,14.6
			c-2.8,4.6-5.8,9-8.9,13c-3.2,4-6.5,7.8-9.8,11.2c-3.4,3.4-6.8,6.6-10.3,9.4c-3.4,2.8-6.9,5.4-10.2,7.8c-3.4,2.3-6.6,4.4-9.7,6.2
			c-6.3,3.7-11.9,6.5-16.7,8.6c-4.8,2.1-8.6,3.5-11.2,4.4C243.8,319.2,242.3,319.6,242.3,319.5L242.3,319.5z"/>
		<g>
			<path d="M184.1,130.5c1-1.1,2.2-2.7,2.7-4.1l0.3,2.5l1.9,1.7C187.6,130.3,185.7,130.3,184.1,130.5z"/>
		</g>
	</g>
</g>
<g>
	<g>
		<path d="M179.1,142.8c0,0,0.3,0.2,0.7,0.6c0.5,0.4,1.2,0.9,2.2,1.6c1,0.6,2.2,1.4,3.7,2c1.5,0.6,3.2,1.3,5.2,1.6
			c2,0.3,4.1,0.4,6.4,0c2.2-0.3,4.6-1.1,6.8-2.1c2.3-1,4.5-2.4,6.7-3.8c2.2-1.4,4.4-2.9,7-3.9c1.3-0.5,2.7-0.8,4.1-0.6
			c0.4,0.1,0.7,0.1,1.1,0.2c0.3,0.1,0.6,0.2,0.9,0.4c0.7,0.3,1.2,0.8,1.7,1.2c2,1.9,3.1,4.4,3.9,6.8c0.8,2.4,1.3,4.8,1.7,7.1
			c0.2,1.1,0.3,2.3,0.5,3.3c0.1,1.1,0.2,2.1,0.3,3.1c0.1,2,0.3,3.8,0.3,5.5c0,1.6,0.1,3.1,0.1,4.2c0,2.3,0,3.7,0,3.7l-0.3,0
			c0,0-0.1-1.3-0.2-3.7c0-1.2-0.2-2.6-0.3-4.2c-0.1-1.6-0.3-3.4-0.5-5.4c-0.1-1-0.2-2-0.4-3.1c-0.2-1.1-0.3-2.2-0.5-3.3
			c-0.4-2.2-0.9-4.6-1.6-6.9c-0.8-2.3-1.8-4.7-3.6-6.5c-0.5-0.4-0.9-0.8-1.5-1.1c-0.2-0.2-0.6-0.3-0.9-0.4c-0.2-0.1-0.6-0.2-0.9-0.2
			c-1.2-0.2-2.5,0-3.7,0.5c-2.4,0.9-4.7,2.4-6.9,3.7c-2.2,1.4-4.5,2.7-6.8,3.7c-2.3,1-4.7,1.7-7,2c-2.3,0.3-4.5,0.2-6.5-0.1
			c-2-0.3-3.7-1-5.2-1.7c-1.5-0.7-2.7-1.5-3.7-2.1c-1-0.7-1.7-1.2-2.2-1.6C179.3,143.1,179.1,142.8,179.1,142.8L179.1,142.8z"/>
		<g>
			<path d="M232.2,176.9c-0.6-1.4-1.5-3.2-2.5-4.2l2.4,0.8l2.4-0.9C233.6,173.7,232.7,175.5,232.2,176.9z"/>
		</g>
	</g>
</g>
<g>
	<g>
		<path d="M163.5,103.3c0,0-0.2,0.2-0.6,0.6c-0.4,0.4-0.9,1-1.4,1.8c-0.5,0.8-1.1,1.8-1.5,2.9c-0.2,0.5-0.4,1.1-0.6,1.7
			c-0.2,0.6-0.3,1.2-0.4,1.8c-0.1,0.6-0.1,1.3-0.1,1.9c0,0.6,0.1,1.2,0.1,1.8c0.2,1.2,0.5,2.2,0.7,3.1c0.2,0.4,0.3,0.9,0.4,1.2
			c0.2,0.4,0.3,0.7,0.4,0.9c0.2,0.5,0.4,0.8,0.4,0.8l-0.6,0.4c0,0-0.2-0.3-0.5-0.8c-0.3-0.5-0.7-1.2-1-2.2c-0.2-0.5-0.4-1-0.5-1.5
			c-0.1-0.6-0.2-1.2-0.3-1.8c-0.1-0.6-0.1-1.3,0-1.9c0-0.7,0.1-1.3,0.2-2c0.1-0.7,0.3-1.3,0.5-1.9c0.2-0.6,0.4-1.2,0.7-1.8
			c0.5-1.1,1.2-2.1,1.8-2.8c0.6-0.8,1.2-1.4,1.6-1.7C163.1,103.4,163.4,103.2,163.5,103.3L163.5,103.3z"/>
		<g>
			<path d="M162.4,124.5c-1.3-0.9-3-1.8-4.4-2.1l2.4-0.7l1.4-2.1C161.7,121,162,123,162.4,124.5z"/>
		</g>
	</g>
</g>
<g>
	<g>
		<path class="st1" d="M307,99.6H30.2c-4.8,0-8.7-3.9-8.7-8.7V78.5c0-4.8,3.9-8.7,8.7-8.7H307c4.8,0,8.7,3.9,8.7,8.7v12.4
			C315.7,95.7,311.8,99.6,307,99.6z"/>
		<path class="st20" d="M307,99.6H30.2c-4.8,0-8.7-3.9-8.7-8.7V78.5c0-4.8,3.9-8.7,8.7-8.7H307c4.8,0,8.7,3.9,8.7,8.7v12.4
			C315.7,95.7,311.8,99.6,307,99.6z"/>
	</g>
	<g>
		<linearGradient id="SVGID_15_" gradientUnits="userSpaceOnUse" x1="90.3511" y1="54.7115" x2="90.3511" y2="72.7919">
			<stop  offset="0" style="stop-color:#FFFFFF"/>
			<stop  offset="1" style="stop-color:#D9E0A9"/>
		</linearGradient>
		<path class="st21" d="M141.7,74H39c-3,0-5.4-2.4-5.4-5.4v-8.4c0-3,2.4-5.4,5.4-5.4h102.8c3,0,5.4,2.4,5.4,5.4v8.4
			C147.2,71.6,144.7,74,141.7,74z"/>
		<text transform="matrix(1 0 0 1 47.0622 69.2839)"><tspan x="0" y="0" class="st4 st5">Event:</tspan><tspan x="33.3" y="0" class="st6 st5">‘error’</tspan></text>
	</g>
	<text transform="matrix(1 0 0 1 123.2946 87.8185)" class="st4 st5">... handle error ...</text>
</g>
<text transform="matrix(1 0 0 1 157.965 137.5671)" class="st4 st5">-or-</text>
</svg>
